<?xml version="1.0" encoding="UTF-8" standalone="no"?>
<svg
   xmlns:dc="http://purl.org/dc/elements/1.1/"
   xmlns:cc="http://creativecommons.org/ns#"
   xmlns:rdf="http://www.w3.org/1999/02/22-rdf-syntax-ns#"
   xmlns:svg="http://www.w3.org/2000/svg"
   xmlns="http://www.w3.org/2000/svg"
   id="svg3713"
   version="1.1"
   viewBox="0 0 13.229166 13.229167"
   height="50"
   width="50">
  <defs
     id="defs3707" />
  <metadata
     id="metadata3710">
    <rdf:RDF>
      <cc:Work
         rdf:about="">
        <dc:format>image/svg+xml</dc:format>
        <dc:type
           rdf:resource="http://purl.org/dc/dcmitype/StillImage" />
        <dc:title></dc:title>
      </cc:Work>
    </rdf:RDF>
  </metadata>
  <g
     style="display:inline"
     transform="translate(0,-283.77082)"
     id="layer1">
    <polygon
       id="polygon3690-5"
       points="247.709,180 250.834,183 257.334,183 262.834,181.75 267.334,181.75 277.834,183 281.834,181.75 280.584,180.25 275.834,177 269.334,167.75 268.834,164.75 281.834,145 284.834,136.5 290.084,131 290.084,123 290.084,116.75 276.084,99 272.584,93.75 273.334,80 273.084,67.5 271.834,61.25 275.584,57.25 271.834,50.25 265.209,43.166 266.834,39.75 272.584,39.75 276.584,35.5 278.584,31.75 277.334,30.5 276.834,28.75 274.584,25 275.584,22.25 273.334,19.5 271.834,19.5 269.084,15.5 263.834,15.5 256.834,17.25 250.584,21.25 245.334,29.5 247.334,33.25 249.334,36.5 249.834,39.75 246.334,43.166 242.084,48 240.334,57.5 240.334,66.75 242.084,76.5 245.084,85 245.084,91.75 245.084,100.75 246.834,110.5 252.084,115.5 252.084,131.5 255.084,138.25 253.834,141.75 251.334,154.25 252.084,162.25 252.084,170 249.834,176.25 "
       style="fill:#231f20"
       transform="matrix(0.07108209,0,0,0.07108209,-12.237027,283.99196)" />
  </g>
</svg>
