<?xml version="1.0" encoding="UTF-8" standalone="no"?>
<svg
   xmlns:dc="http://purl.org/dc/elements/1.1/"
   xmlns:cc="http://creativecommons.org/ns#"
   xmlns:rdf="http://www.w3.org/1999/02/22-rdf-syntax-ns#"
   xmlns:svg="http://www.w3.org/2000/svg"
   xmlns="http://www.w3.org/2000/svg"
   id="svg3713"
   version="1.1"
   viewBox="0 0 13.229166 13.229167"
   height="50"
   width="50">
  <defs
     id="defs3707" />
  <metadata
     id="metadata3710">
    <rdf:RDF>
      <cc:Work
         rdf:about="">
        <dc:format>image/svg+xml</dc:format>
        <dc:type
           rdf:resource="http://purl.org/dc/dcmitype/StillImage" />
        <dc:title></dc:title>
      </cc:Work>
    </rdf:RDF>
  </metadata>
  <g
     style="display:inline"
     transform="translate(0,-283.77082)"
     id="layer1">
    <g
       id="g3686"
       transform="matrix(0.0789801,0,0,0.0789801,2.6721337,282.54663)">
      <path
         id="path3684"
         d="m 87.917,96.75 -1.5,-1.25 v -2.25 -2 -1.75 l -2.25,-2.5 -1.75,-1.75 -4,-2.75 h -3.833 l -3.917,1.75 -4.25,3.75 -2.5,4.25 h -2.25 -8.25 l -11.542,4.5 -5.958,2.5 -6.25,6.25 -6,5.833 -6.5,9.667 -0.5,6.25 1.75,7.75 4.75,8 1.25,7.5 -1.75,3.5 -4,4.75 -6.75,7 -2.75,3.25 2,3 1.5,3.25 10.5,7.75 2.5,-1 h 4 l -0.25,-2 -3,-1.5 1.5,-1.5 -1.75,-2.5 -3,-3 v -2.25 l 2.75,-1.25 9.5,-5.5 5,-3.75 v -3.25 l 8,3.25 -1.5,5 v 5 4 l 1.5,3 V 177 l 4.75,-1.25 1.5,-1.25 3,2.5 h 2.5 4.5 l 5.25,-1.25 v -1.25 h -5.5 l -3.25,-4.25 v -5.5 l 1.25,-8.75 v -4 l 5.5,-8.75 v -4.75 l 1.25,-4.5 1.5,-9 v -10 l 1.5,-6.5 2.417,-1.25 3.083,4.083 5.75,-1.333 5.5,-4 1.75,-2 v -1.5 -2.75 z m -31.25,40.5 -2.5,4.25 -6.25,-5.75 -4,-3 h 4.25 4.75 l 3.75,-2.75 z"
         style="fill:#231f20" />
    </g>
  </g>
</svg>
