<?xml version="1.0" encoding="UTF-8" standalone="no"?>
<svg
   xmlns:dc="http://purl.org/dc/elements/1.1/"
   xmlns:cc="http://creativecommons.org/ns#"
   xmlns:rdf="http://www.w3.org/1999/02/22-rdf-syntax-ns#"
   xmlns:svg="http://www.w3.org/2000/svg"
   xmlns="http://www.w3.org/2000/svg"
   id="svg3713"
   version="1.1"
   viewBox="0 0 13.229166 13.229167"
   height="50"
   width="50">
  <defs
     id="defs3707" />
  <metadata
     id="metadata3710">
    <rdf:RDF>
      <cc:Work
         rdf:about="">
        <dc:format>image/svg+xml</dc:format>
        <dc:type
           rdf:resource="http://purl.org/dc/dcmitype/StillImage" />
        <dc:title></dc:title>
      </cc:Work>
    </rdf:RDF>
  </metadata>
  <g
     style="display:inline"
     transform="translate(0,-283.77082)"
     id="layer1">
    <polygon
       id="polygon3688-4"
       points="229.584,175.25 235.334,175.25 238.834,176.5 240.334,178.5 238.334,180.5 235.834,180.5 228.334,180.5 225.834,180.5 223.084,180.5 219.584,180.5 215.084,180.5 211.084,177 211.084,173 214.584,169.25 214.584,164 215.334,151 211.084,151 201.334,157.75 195.084,160.25 188.834,163 182.084,167.5 182.084,172.5 184.584,175.25 186.584,178 186.834,180.5 184.334,183 179.584,183 171.168,170.25 169.334,164.5 171.168,162.75 173.834,161.25 178.834,159.75 190.584,148.75 195.084,145 201.584,142 197.084,132.25 194.084,125 188.834,119.75 187.834,111 189.334,106.75 190.084,101.25 188.834,98.5 189.584,84 187.334,72.75 188.834,64 192.834,55 199.334,51.75 198.834,49.25 196.084,44.416 198.334,39.25 207.084,35 216.084,33 220.334,33 223.834,35.75 225.084,38.75 224.584,42.25 226.584,44.416 227.084,46.75 228.334,51.75 228.334,53.75 224.084,56.75 220.334,58 215.334,58 214.084,59.75 214.084,62.25 217.584,67.25 219.584,72 219.334,78.25 217.584,82.25 215.334,84.5 216.584,92.5 221.209,100.75 223.834,107.25 225.084,110 228.334,116.5 229.584,122.25 229.584,126 228.084,130.5 226.334,132.25 229.584,134.75 229.584,143.25 227.334,150.5 225.834,168.5 226.084,171.75 "
       style="fill:#231f20"
       transform="matrix(0.07055556,0,0,0.07055556,-7.8375942,284.08832)" />
  </g>
</svg>
