<?xml version="1.0" encoding="UTF-8" standalone="no"?>
<svg
   xmlns:dc="http://purl.org/dc/elements/1.1/"
   xmlns:cc="http://creativecommons.org/ns#"
   xmlns:rdf="http://www.w3.org/1999/02/22-rdf-syntax-ns#"
   xmlns:svg="http://www.w3.org/2000/svg"
   xmlns="http://www.w3.org/2000/svg"
   id="svg3713"
   version="1.1"
   viewBox="0 0 13.229166 13.229167"
   height="50"
   width="50">
  <defs
     id="defs3707" />
  <metadata
     id="metadata3710">
    <rdf:RDF>
      <cc:Work
         rdf:about="">
        <dc:format>image/svg+xml</dc:format>
        <dc:type
           rdf:resource="http://purl.org/dc/dcmitype/StillImage" />
        <dc:title></dc:title>
      </cc:Work>
    </rdf:RDF>
  </metadata>
  <g
     style="display:inline"
     transform="translate(0,-283.77082)"
     id="layer1">
    <polygon
       id="polygon3682-8"
       points="152.834,127.5 152.167,129 152.167,131.333 154.834,133.833 155.667,138.833 154.667,147 154.334,151.5 153.5,163 154,166.333 155,167.833 155.667,171 157.167,173 160.5,174.667 166,176.333 168.334,177.667 168.334,179 165.334,179 161.167,180.333 154,179.5 148.5,180.333 143.834,180.333 142.167,177.833 141.5,174.667 142.5,172.833 143.834,168.333 143,163 141.334,160.333 140.167,156.667 139.834,152.333 140,148.333 140.667,146.333 137.834,142 135,137.833 132.167,133 131,132 131,136.667 130,144.167 128.5,150 128.5,152.167 123.333,155.5 116.833,160.333 113.5,162.167 110.667,162.167 102.833,165.5 97.5,169.333 98.167,171 102.167,173.5 105.5,177.167 109.333,179 108.833,181.5 106,181.5 101.167,183 94.5,182 89.167,177 84.667,172.833 85.5,167.167 89,164.5 95.167,159 99.833,156.333 102.333,152.167 106.833,148.833 111.167,146 113.167,143.5 111.167,130.167 110.333,122.833 106.167,115.167 104.833,100.5 106.167,83.833 108.833,70.5 113.667,62.833 121.667,53.833 129.167,48.166 136,42.833 141.667,41.666 149.334,41.666 153,44.5 153.667,48 155.834,48.666 156.167,50 154.667,53.166 156,53.5 157,56.833 156.167,58.833 153.834,59.333 158,59 158.167,61.5 156.834,64.666 154,67 150.334,67.667 142.334,67.833 138.334,64.666 137.167,66 136,67 136,67.833 136,68.833 137.167,70.667 138.334,72.833 138.334,76 138.334,78.833 138.334,82.333 137.167,86.167 136,92 137.167,93.667 140.167,99.5 143.834,103.167 148.5,110 151.5,115.167 152.5,118.167 153.834,122.833 153.834,125.5 "
       style="fill:#231f20"
       transform="matrix(0.06552151,0,0,0.06552151,-1.6739204,285.00955)" />
  </g>
</svg>
